<svg xmlns="http://www.w3.org/2000/svg" version="1.0" viewBox="0 0 400 110"><path fill="#F7E0D3" d="M240.9 29.4c-7.5 2.7-13.6 9.3-15.4 16.8-.6 2.2-1.3 2.8-3.5 2.8-1.6 0-3.2.4-3.5 1-.4.6.7 1 2.4 1s3.1.5 3.1 1.1c0 3.5-6.3 37.7-7.5 40.4-2 4.9-5.5 6.9-10.8 6.1-3.6-.6-4.6-.3-6.2 1.4-1.8 2-1.8 2 3.4 2 6.7 0 11.2-2.1 15.7-7.3 4.3-5.1 6.5-12.1 9.4-30l2.3-13.7h5.4c2.9 0 5.3-.5 5.3-1 0-.6-2.3-1-5.1-1h-5.1l.7-3.8c1.3-7.3 4-11.9 7.7-13.1 2.5-.8 4.3-.9 6.3-.1 2.2.8 3.1.7 4.6-.6 1-.9 1.6-2.1 1.3-2.5-.8-1.3-6.3-1-10.5.5zm47.7.1c-4.9 1.7-10 6.7-12.7 12.2-2.2 4.6-7.9 30.3-7.9 35.8 0 4.7 2.6 6.1 7.7 4 4.1-1.7 7-4 8.4-6.8.6-1-.9-.3-3.7 1.8-3.4 2.6-5 3.3-5.9 2.5-.7-.6-1.1-1.8-.9-2.8.2-.9 1.7-8.9 3.5-17.7 3.1-16 5.3-23 8-25.1 2.3-1.8 5.8-2.3 9.2-1.3 2.6.7 3.4.6 4.4-.7.7-1 1-2.1.7-2.5-.8-1.3-6.4-1-10.8.6zm-29.8 6c-2 1.4-4.2 3.4-4.8 4.5l-1.1 2.1 3.8-2c2.2-1.1 4.4-3.1 5.1-4.5.6-1.4 1.1-2.6.9-2.5-.1 0-1.9 1.1-3.9 2.4zm-149.2 3c-6 2.1-8.9 4.7-11 9.8-2.2 5.4-1.9 6.3 1.8 4.6 1.9-.9 2.6-2 2.6-4 0-3.6 5-8.6 9.6-9.5 1.9-.3 3.7-.5 3.9-.3.8.8-6.4 33.1-7.9 35.4-.9 1.4-3 2.7-5 3.1-1.9.3-4.2 1.4-5.1 2.4-1.5 1.7-1.1 1.8 7.7 2.2 7.4.4 9.7.2 11.1-1 2.8-2.5 2-3.2-3.4-3.2h-5.2l4.1-4.4c4.2-4.5 4.7-6.2 8.8-26.9l1.7-8.9 3.6.7c5.3 1 7.9 3.1 8.6 6.8 1.3 6.8-3.1 12.7-11.4 15.3l-3.6 1.2 3.5.1c11 .2 21.5-12.6 17-20.9-.5-1-2.4-2.3-4.1-2.9-4.5-1.6-22.6-1.3-27.3.4zm37.8 12.7c-2.6 1.8-5 4-5.2 4.8-.3 1 .3.8 1.9-.6 3.4-3 6.7-4.6 8-3.8 1.4.8.7 6.2-2.4 20.1L147.3 82h3.3c3.1 0 3.2-.2 3.9-5 1.3-9.3 12.7-24.5 17.9-23.8 2.6.3 5.6-1.7 5.6-3.8 0-2.2-5.2-1.7-8.7.8-3.3 2.5-6.7 6.4-10.2 11.8-2.1 3.3-2.2 3.3-1.7.7.4-1.5.9-4.7 1.3-7.2 1.1-8.1-3.2-9.7-11.3-4.3zm46.5-1.2c-8.1 4.2-15 16.7-13.4 24 2.4 10.9 13.3 11.6 23.2 1.5 5.5-5.6 7.3-9.9 7.3-17.3 0-8.8-8.4-12.8-17.1-8.2zm8 1.9c4 4 3.4 15.6-1 22.8-2.4 3.8-4.7 5.3-8.3 5.3-8.7 0-6.7-23.6 2.4-28.6 3.4-1.8 4.7-1.7 6.9.5zm49.4-1.6c-7.4 2.6-8.7 3.7-4.5 3.7 3 0 3.2.2 3.2 3.7-.1 2.1-.7 6.7-1.5 10.3-2.1 9.7-2 12.8.8 14.1 1.5.7 3.1.7 4.8.1 3.2-1.3 8.9-6 8.9-7.5 0-.6-1-.1-2.2 1-1.3 1.1-3.3 2.6-4.6 3.2-1.8 1-2.3.9-2.9-.5-.6-1.7.9-11.4 3.7-23.2.9-3.9 1.4-7.2 1.1-7.1-.3 0-3.4 1-6.8 2.2zm50-.2c-7.4 3.6-13.3 13-13.3 20.9 0 11.6 9 14.9 21.4 7.7 2.2-1.2 4.1-2.8 4.4-3.4.2-.7-1.6-.2-4 1.2-4.8 2.8-11.9 3.3-13.7 1.1-.7-.8-1.5-3-1.8-4.9-.5-3.5-.5-3.5 3.8-4.2 9.7-1.6 15.9-7 15.9-13.6 0-6.9-4.8-8.7-12.7-4.8zm7.1 2.5c1.9 5-.6 9.7-6.8 12.5-6.1 2.7-7.8 2.5-7-.9 1.1-4.4 4.2-10 6.6-11.6 2.9-2 6.4-2 7.2 0z"/></svg>
