<svg xmlns="http://www.w3.org/2000/svg" version="1.0" viewBox="0 0 400 110"><path fill="#BCFEFB" d="M188.5 36.2c-5.8 4.3-6.1 6.7-.5 3.8 2.2-1.1 4-2.2 4-2.4 0-.3.3-1.1.6-2 .8-2.2-.5-2-4.1.6zm24.1-.2c-2.9 1.8-5.2 4.8-4.4 5.5.7.8 6.7-3.4 7.8-5.4 1.3-2.5.4-2.5-3.4-.1zM149 36c-12.7 2.4-22.7 17.3-19 28.4 1.3 4.1 4.3 6.6 7.8 6.6 3.1 0 8.9-2.8 9.6-4.6.4-1.1.2-1.2-1.4-.4-1 .5-3.2 1-4.9 1-4.5 0-6.5-3.6-5.8-10.4 1.6-15.9 15.7-25.2 23.1-15.3 1.7 2.3 2.1 4.3 2.1 9.5-.1 8.1-3.2 14.9-9.4 20.5-5.7 5.2-16.5 8.1-21 5.7-1.4-.7-2.3-.5-3.5.9-1.6 1.7-.8 2.1 16.4 9 10 3.9 19.4 7.1 20.9 7.1 2.9 0 9.2-3.6 9.8-5.7.3-.9-.5-.9-3.1.2-5.2 2.2-6.5 2-19.7-3.1-10.6-4.2-14.3-6.4-10.6-6.4.7 0 4.5-1.5 8.4-3.4 12.4-6 18.7-14.3 18.7-24.8.1-4.3-.5-6.4-2-8.5-3.9-5.1-10.1-7.6-16.4-6.3zm83.3 3.8c-.7.4-1.6 2.6-2.1 4.7-.7 3.5-1.2 4-3.7 4.3-4.6.5-5.5 2.2-1.2 2.2 3.4 0 3.7.2 3.2 2.2-1.8 7.6-4.5 22.4-4.5 24.4 0 1.4 1 3 2.5 4 2.8 1.8 6.4 1 11.5-2.6 4.3-3.1 3.7-4.4-.8-1.9-4.4 2.6-7.2 2-7.2-1.3.1-1.3 1.1-7.3 2.3-13.3l2.3-11 4.9-.3c7.3-.5 8.2-2.2 1.1-2.2-5 0-5.7-.2-5.2-1.8 1.8-6.4 1.8-8.2-.1-8.2-1 0-2.4.4-3 .8zm-50 10.6c-7.4 2.5-8.7 3.6-4.5 3.6 2.9 0 3.2.3 3.2 3.2-.1 1.8-.7 6.2-1.5 9.8-3 13.7-1.3 17.6 6.2 14.5 4-1.7 8.3-5.2 8.3-6.8 0-.6-1-.1-2.2 1-1.3 1.1-3.3 2.5-4.4 3.2-4.3 2.1-4.5-.4-1.3-15.8 1.7-7.9 2.9-14.4 2.7-14.6-.2-.1-3.1.7-6.5 1.9zm22.7.5c-7.2 2.5-7.4 2.6-3.7 2.9 4.4.4 4.4.1 1.7 14.1-1.1 5.7-1.8 11.2-1.5 12.2 1.3 3.9 6.8 3.2 13.2-1.7 4.8-3.6 4-4.9-.8-1.5-3.7 2.7-6.9 3.2-6.9 1 0-.4 1.3-7.2 3-15.1 1.6-7.8 2.8-14.3 2.7-14.4-.1-.1-3.6 1-7.7 2.5zm64.5-2c-4.9 1.3-9 3.8-12.3 7.6-8.4 9.5-10.5 22.1-4.2 25.5 4.7 2.5 11.4-2.2 18-12.5 1.8-2.8 2.9-4.1 2.6-3-.4 1.1-1 4.7-1.3 8.1-.5 5.6-.4 6.3 1.5 7.3 1.7.9 3 .8 5.9-.4 4-1.7 8.3-5.2 8.3-6.8 0-.6-1-.1-2.2 1-3 2.7-6.4 4.4-7.2 3.6-1.1-1.1-.6-5.6 1.9-17.7 1.4-6.6 2.3-12.2 2-12.4-.9-.9-10-1.1-13-.3zm4 3.1c2.5.9 2.7 1.4 2 4.8-1.3 7.3-12.8 21.6-16.9 21-4.9-.7-2.1-17 3.9-23.4 3.4-3.6 6.3-4.2 11-2.4z"/></svg>
