<svg xmlns="http://www.w3.org/2000/svg" version="1.0" viewBox="0 0 400 110"><path fill="#CDF6CF" d="M307.7 29.4c-10.1 3.7-13.8 10.2-18.3 32.6-3.1 15.2-3.2 16.6-1.8 18.8 1.2 1.9 2.1 2.2 4.2 1.7 3.4-.7 10.4-5.5 11-7.4.3-.8-1.4-.1-3.8 1.6-3.7 2.8-7 3.4-7 1.4 0-1.7 7.1-35.8 8-38.7 2-5.9 7.8-9.2 12.7-7.3 2 .7 3 .6 4.4-.7 1-.9 1.6-2.1 1.3-2.5-.8-1.3-6.4-1-10.7.5zm-73.2 6.8c-5.8 4.3-6.1 6.7-.5 3.8 2.2-1.1 4-2.2 4-2.4 0-.3.3-1.1.6-2 .8-2.2-.5-2-4.1.6zM130.3 36c-6.7 1.6-10.9 5.9-12 12.3-.5 3.4-.1 4 8.1 12.6 4.7 4.9 8.6 9.7 8.6 10.6 0 3.4-3 7.3-6.4 8.5-3.8 1.2-9.5.2-13.2-2.4-2-1.4-2.3-1.4-4 .5-2.3 2.5-1 3.5 5.4 4.5 8.5 1.3 17-1.8 21-7.6 4-5.9 3.2-8.2-6.3-18-4.9-5.1-8.5-9.7-8.5-10.8 0-1.1 1.2-3.4 2.6-5.1 2.1-2.6 3.3-3.1 6.8-3.1 4.8 0 8.6 2.2 8.6 5.1 0 2.3 1.5 2.5 2.4.3 1.1-2.8.6-5.3-1.1-6.2-2.9-1.5-8.5-2.1-12-1.2zM164 49.1c-8.2 3.3-15 13.1-15 21.7 0 6.4 1.1 8.7 5.1 10.8 7.4 3.8 19.7-3.9 23.8-14.9.6-1.6 1.1-5.1 1.1-7.8 0-4.2-.5-5.5-2.9-8-3.1-3.1-7.3-3.7-12.1-1.8zm6.1 2.8c2.1 1.7 2.4 2.8 2.4 9.3 0 5.9-.5 8.1-2.5 11.8-2.9 5.2-6.6 7.6-10.2 6.7-7.5-1.9-5.5-21 2.8-27.6 3.3-2.6 4.5-2.6 7.5-.2zm29.4-2.2c-12.4 6.5-18.4 22.9-11.1 30.2 2.1 2 3.6 2.6 6.9 2.5 4.4-.1 13.3-4 15.7-7 1.1-1.2 0-1-3.7 1-2.9 1.4-6.8 2.6-8.6 2.6-5 0-6.7-2.5-6.7-9.6 0-8 3.6-15.5 8.6-17.9 4.7-2.2 8.8-.9 9.2 2.8.5 3.8 2 3.3 2.8-.9.5-2.6.3-3.9-.7-4.5-2.2-1.4-9.1-1-12.4.8zm28.8.7c-7.4 2.5-8.7 3.6-4.5 3.6 2.9 0 3.2.3 3.2 3.2-.1 1.8-.7 6.2-1.5 9.8-3 13.7-1.3 17.6 6.2 14.5 4-1.7 8.3-5.2 8.3-6.8 0-.6-1-.1-2.2 1-1.3 1.1-3.3 2.5-4.4 3.2-4.3 2.1-4.5-.4-1.3-15.8 1.7-7.9 2.9-14.4 2.7-14.6-.2-.1-3.1.7-6.5 1.9zm32.6-.8C252 52.3 243 64.5 243 73.8c0 5.4 1.2 7.8 4.5 8.6 4.7 1.2 10.9-3.4 16.6-12.4 3.1-4.8 3.5-4.1 1.8 3-1.9 8.2.8 11.4 7.3 8.6 3.1-1.3 8.8-6 8.8-7.3 0-.3-1.5.6-3.4 2.1-4 3-7.6 3.4-7.6.8 0-.9 1.3-7.6 2.9-14.9l2.8-13.2-2.1-.5c-3.4-.9-8.8-.6-13.7 1zm8.3 3.2c2.4 2.4-5 16.2-11.8 22.2-4.3 3.8-7.1 3.9-8 .4-1.5-5.8 3.9-20.4 8.5-22.9 2.6-1.5 9.7-1.3 11.3.3z"/></svg>
