<svg xmlns="http://www.w3.org/2000/svg" version="1.0" viewBox="0 0 400 110"><path fill="#DADCF3" d="M136 36.6c-2.1.9-5 3.5-5 4.5 0 .5 1.1.4 2.4 0 1.4-.6 4-.5 6.7.1 2.4.6 7.2 1.3 10.6 1.7l6.1.6-16.9 17.9c-9.3 9.9-16.9 18.5-16.9 19.3 0 1.5 1.1 1.6 6.7.3 3.1-.7 6.3-.6 12 .5 4.3.8 8.8 1.5 10 1.5 2.4 0 7.7-4.1 9.4-7.2 1-1.8.8-1.8-2 .3-3 2.2-3.3 2.2-12.8 1-5.4-.6-11.1-1.2-12.7-1.4-2.8-.2-2.1-1 13.7-17.9C156.5 48 164 39.5 164 38.7c0-.9-2-1.2-7.2-1.2-4-.1-10-.4-13.3-.8-3.3-.3-6.7-.4-7.5-.1zM181.9 50c-7.3 3.8-12.9 13-12.9 21 0 6.4 1.2 8.8 5.6 10.6 4.1 1.7 9.4.7 16.2-3.2 5.7-3.4 5.4-4.7-.5-1.8C181.6 81 175 79 175 71.9c0-2.3.6-2.7 5.2-3.7 9.5-2.2 14.8-7.2 14.8-14 0-5.9-6.2-7.9-13.1-4.2zm7.4 3.1c1.4 2.2.1 6.6-2.7 9.4-2.4 2.4-10.1 5.3-11.2 4.3-1.2-1.3 1.9-9 5.1-12.3 3.6-3.9 6.9-4.4 8.8-1.4zm18.2-4c-2.8 1.6-7.5 6.1-7.5 7.2 0 .5 1.6-.5 3.5-2.2 3.6-3.1 5.9-3.9 6.9-2.2.5.8-2.8 18.7-4.9 27.4-.7 2.5-.5 2.7 2.3 2.7 2.9 0 3.1-.3 4.2-5.7 1.4-6.6 7.4-16.7 12.6-21.3 6.5-5.6 7.5-2.6 4.6 12.9-2.1 10.9-2 13.7.8 14.6 3.2 1 14-4.9 14-7.7 0-.6-1-.2-2.2.9-7.7 6.9-9.3 4.9-6.7-8.2 3-15.6 2.4-19.5-2.7-19.5-4.2 0-10 5.3-16.6 15-1.6 2.4-1.6 2.4-.6-2.2.5-2.5.8-6.4.6-8.5-.3-3.4-.6-3.8-3.3-4-1.6-.2-3.9.2-5 .8zm45 0c-2.8 1.6-7.5 6.1-7.5 7.2 0 .5 1.6-.5 3.5-2.2 3.6-3.1 5.9-3.9 6.9-2.2.5.8-2.8 18.7-4.9 27.4-.7 2.5-.5 2.7 2.3 2.7 2.9 0 3.1-.3 4.2-5.7 1.4-6.6 7.4-16.7 12.6-21.3 6.5-5.6 7.5-2.6 4.6 12.9-2.1 10.9-2 13.7.8 14.6 3.2 1 14-4.9 14-7.7 0-.6-1-.2-2.2.9-7.7 6.9-9.3 4.9-6.7-8.2 3-15.6 2.4-19.5-2.7-19.5-4.2 0-10 5.3-16.6 15-1.6 2.4-1.6 2.4-.6-2.2.5-2.5.8-6.4.6-8.5-.3-3.4-.6-3.8-3.3-4-1.6-.2-3.9.2-5 .8z"/></svg>
